<?xml version="1.0" encoding="UTF-8"?>
<svg version="1.1" xmlns="http://www.w3.org/2000/svg" width="512" height="512">
<path d="M0 0 C0.928125 0.00322266 1.85625 0.00644531 2.8125 0.00976562 C3.740625 -0.00634766 4.66875 -0.02246094 5.625 -0.0390625 C6.511875 -0.03970703 7.39875 -0.04035156 8.3125 -0.04101562 C9.1271875 -0.04399658 9.941875 -0.04697754 10.78125 -0.05004883 C11.4515625 0.07281494 12.121875 0.19567871 12.8125 0.32226562 C16.93236198 6.50205859 13.71256591 15.06531859 12.35961914 21.99316406 C11.52836338 26.10649856 10.66729031 30.21375734 9.8125 34.32226562 C17.0725 34.32226562 24.3325 34.32226562 31.8125 34.32226562 C31.42835938 32.20304687 31.04421875 30.08382813 30.6484375 27.90039062 C30.28462022 25.84233075 29.92530113 23.78353263 29.56640625 21.72460938 C29.31491592 20.29604059 29.05876994 18.86828317 28.79785156 17.44140625 C28.42321134 15.38803465 28.06551272 13.33230969 27.7109375 11.27539062 C27.38101807 9.42155762 27.38101807 9.42155762 27.04443359 7.53027344 C26.81000602 4.28776992 27.0247235 2.97210911 28.8125 0.32226562 C32.10409316 0.26436209 35.39555603 0.22870302 38.6875 0.19726562 C39.62464844 0.18050781 40.56179687 0.16375 41.52734375 0.14648438 C42.42324219 0.14003906 43.31914062 0.13359375 44.2421875 0.12695312 C45.06960449 0.11647949 45.89702148 0.10600586 46.74951172 0.09521484 C48.8125 0.32226562 48.8125 0.32226562 50.8125 2.32226562 C51.27938793 9.55173347 50.13694941 16.29269697 48.8125 23.38476562 C48.52632812 24.9693457 48.52632812 24.9693457 48.234375 26.5859375 C47.76739774 29.16598684 47.29092666 31.74431483 46.8125 34.32226562 C54.0725 34.32226562 61.3325 34.32226562 68.8125 34.32226562 C68.173125 31.24914062 67.53375 28.17601562 66.875 25.00976562 C63.51528807 8.38477542 63.51528807 8.38477542 63.8125 3.32226562 C64.4725 2.33226562 65.1325 1.34226563 65.8125 0.32226562 C67.84375 -0.05004883 67.84375 -0.05004883 70.3125 -0.04101562 C71.6428125 -0.04004883 71.6428125 -0.04004883 73 -0.0390625 C74.3921875 -0.01489258 74.3921875 -0.01489258 75.8125 0.00976562 C76.740625 0.00654297 77.66875 0.00332031 78.625 0 C85.54555861 0.05532423 85.54555861 0.05532423 87.8125 2.32226562 C88.12106435 11.5057285 87.0152806 25.91670443 82.8125 34.32226562 C90.0725 34.32226562 97.3325 34.32226562 104.8125 34.32226562 C104.52375 32.76636719 104.235 31.21046875 103.9375 29.60742188 C103.56208924 27.53327743 103.18711226 25.45905444 102.8125 23.38476562 C102.62171875 22.36318359 102.4309375 21.34160156 102.234375 20.2890625 C101.14615313 14.20667957 100.41331218 8.50343952 100.8125 2.32226562 C103.69575223 -0.5609866 106.05699465 0.03152112 110 0 C110.928125 0.00322266 111.85625 0.00644531 112.8125 0.00976562 C113.740625 -0.00634766 114.66875 -0.02246094 115.625 -0.0390625 C116.511875 -0.03970703 117.39875 -0.04035156 118.3125 -0.04101562 C119.1271875 -0.04399658 119.941875 -0.04697754 120.78125 -0.05004883 C121.78671875 0.13424683 121.78671875 0.13424683 122.8125 0.32226562 C125.31032865 4.0690086 124.74910604 6.35278789 124.125 10.57226562 C124.02977051 11.27158203 123.93454102 11.97089844 123.83642578 12.69140625 C122.80374787 19.96746232 121.33307228 27.13410574 119.8125 34.32226562 C127.0725 34.32226562 134.3325 34.32226562 141.8125 34.32226562 C141.43996094 32.4428125 141.06742188 30.56335938 140.68359375 28.62695312 C140.20518712 26.15049528 139.7273524 23.6739269 139.25 21.19726562 C138.8797168 19.34101562 138.8797168 19.34101562 138.50195312 17.44726562 C138.27314453 16.2484375 138.04433594 15.04960937 137.80859375 13.81445312 C137.59388428 12.71472168 137.3791748 11.61499023 137.15795898 10.48193359 C136.79556925 7.16741205 137.05147114 4.558497 137.8125 1.32226562 C140.11259773 -0.9778321 145.66040666 0.13689198 148.75 0.13476562 C150.14895508 0.11639648 150.14895508 0.11639648 151.57617188 0.09765625 C152.91325195 0.09475586 152.91325195 0.09475586 154.27734375 0.09179688 C155.098396 0.08768799 155.91944824 0.0835791 156.76538086 0.0793457 C158.8125 0.32226562 158.8125 0.32226562 160.8125 2.32226562 C161.27938793 9.55173347 160.13694941 16.29269697 158.8125 23.38476562 C158.62171875 24.44115234 158.4309375 25.49753906 158.234375 26.5859375 C157.76739774 29.16598684 157.29092666 31.74431483 156.8125 34.32226562 C164.0725 34.32226562 171.3325 34.32226562 178.8125 34.32226562 C178.35875 32.42476562 177.905 30.52726562 177.4375 28.57226562 C173.15141464 9.92474731 173.15141464 9.92474731 173.8125 2.32226562 C176.69575223 -0.5609866 179.05699465 0.03152112 183 0 C183.928125 0.00322266 184.85625 0.00644531 185.8125 0.00976562 C186.740625 -0.00634766 187.66875 -0.02246094 188.625 -0.0390625 C189.511875 -0.03970703 190.39875 -0.04035156 191.3125 -0.04101562 C192.1271875 -0.04399658 192.941875 -0.04697754 193.78125 -0.05004883 C194.78671875 0.13424683 194.78671875 0.13424683 195.8125 0.32226562 C199.93236198 6.50205859 196.71256591 15.06531859 195.35961914 21.99316406 C194.52836338 26.10649856 193.66729031 30.21375734 192.8125 34.32226562 C200.0725 34.32226562 207.3325 34.32226562 214.8125 34.32226562 C214.379375 31.98841797 214.379375 31.98841797 213.9375 29.60742188 C213.56208924 27.53327743 213.18711226 25.45905444 212.8125 23.38476562 C212.62171875 22.36318359 212.4309375 21.34160156 212.234375 20.2890625 C211.14615313 14.20667957 210.41331218 8.50343952 210.8125 2.32226562 C212.8125 0.32226563 212.8125 0.32226563 214.87548828 0.09521484 C216.11661377 0.11092529 216.11661377 0.11092529 217.3828125 0.12695312 C218.27871094 0.13339844 219.17460937 0.13984375 220.09765625 0.14648438 C221.03480469 0.16324219 221.97195313 0.18 222.9375 0.19726562 C223.88238281 0.20628906 224.82726562 0.2153125 225.80078125 0.22460938 C228.13827292 0.2482204 230.47526123 0.28115046 232.8125 0.32226562 C234.73880059 5.02892239 234.87172274 8.06249044 233.9140625 13.03320312 C233.68203125 14.27714844 233.45 15.52109375 233.2109375 16.80273438 C232.95570313 18.08792969 232.70046875 19.373125 232.4375 20.69726562 C232.18612219 22.01861883 231.93610841 23.34023231 231.6875 24.66210938 C231.07590686 27.88473474 230.44597546 31.10387018 229.8125 34.32226562 C237.0725 34.32226562 244.3325 34.32226562 251.8125 34.32226562 C251.173125 31.24914062 250.53375 28.17601562 249.875 25.00976562 C246.51528807 8.38477542 246.51528807 8.38477542 246.8125 3.32226562 C247.4725 2.33226562 248.1325 1.34226563 248.8125 0.32226562 C250.84375 -0.05004883 250.84375 -0.05004883 253.3125 -0.04101562 C254.199375 -0.04037109 255.08625 -0.03972656 256 -0.0390625 C257.3921875 -0.01489258 257.3921875 -0.01489258 258.8125 0.00976562 C259.740625 0.00654297 260.66875 0.00332031 261.625 0 C268.54555861 0.05532423 268.54555861 0.05532423 270.8125 2.32226562 C271.31867079 9.15557133 270.05420587 15.61873189 268.8125 22.32226562 C268.62171875 23.38316406 268.4309375 24.4440625 268.234375 25.53710938 C267.76658449 28.13334669 267.29249288 30.72826157 266.8125 33.32226562 C267.35519531 33.54140625 267.89789063 33.76054688 268.45703125 33.98632812 C269.17246094 34.3034375 269.88789063 34.62054688 270.625 34.94726562 C271.68654297 35.39972656 271.68654297 35.39972656 272.76953125 35.86132812 C275.66219048 37.92988368 276.45597077 40.0477271 277.8125 43.32226562 C278.18854749 46.79207706 278.18854749 46.79207706 278.19002342 50.6967926 C278.19438374 51.42116528 278.19874407 52.14553796 278.20323652 52.89186132 C278.21418836 55.32010682 278.20377134 57.74778399 278.19345093 60.17602539 C278.19690752 61.93409548 278.2016721 63.6921634 278.20763266 65.45022678 C278.22017207 70.28221634 278.21395889 75.11402845 278.20467401 79.9460187 C278.19789591 85.15672294 278.20835859 90.36739633 278.21661377 95.57809448 C278.22996653 105.78622765 278.22706648 115.99429471 278.21837585 126.20243049 C278.21160578 134.49743681 278.21067965 142.79242457 278.2139473 151.08743286 C278.214407 152.26719147 278.21486669 153.44695008 278.21534032 154.66245896 C278.21629948 157.05897737 278.21727212 159.45549578 278.2182581 161.85201418 C278.22681651 184.33392672 278.21697077 206.81580258 278.200857 229.29770911 C278.18745342 248.59595205 278.18978138 267.89414085 278.20361328 287.19238281 C278.21966111 309.59283687 278.2259925 331.99325877 278.21677649 354.39371777 C278.21582082 356.7815113 278.21487771 359.16930484 278.2139473 361.55709839 C278.21348447 362.73199516 278.21302164 363.90689194 278.21254479 365.11739165 C278.20995251 373.40420684 278.21433103 381.69100168 278.22138596 389.97781372 C278.2297923 400.07412436 278.22753904 410.17036501 278.21154372 420.2666676 C278.20364936 425.41976986 278.20058927 430.57275534 278.21049118 435.72585678 C278.21941442 440.44089082 278.21454438 445.15569958 278.19855852 449.87071311 C278.19520066 451.57856774 278.19692728 453.2864413 278.20418589 454.9942838 C278.21328423 457.3123742 278.2039768 459.62968896 278.19002342 461.94773865 C278.18929284 463.88057284 278.18929284 463.88057284 278.18854749 465.85245419 C277.77656978 469.65379583 276.79438989 472.07234612 274.8125 475.32226562 C272.76953125 476.78320312 272.76953125 476.78320312 270.625 477.69726562 C269.90957031 478.014375 269.19414062 478.33148438 268.45703125 478.65820312 C267.91433594 478.87734375 267.37164062 479.09648437 266.8125 479.32226562 C266.93367188 479.97710937 267.05484375 480.63195312 267.1796875 481.30664062 C267.73125485 484.31056126 268.27194554 487.31634452 268.8125 490.32226562 C269.09867187 491.86720703 269.09867187 491.86720703 269.390625 493.44335938 C270.40752303 499.14525189 271.24166058 504.52859777 270.8125 510.32226562 C267.92924777 513.20551785 265.56800535 512.61301013 261.625 512.64453125 C260.696875 512.64130859 259.76875 512.63808594 258.8125 512.63476562 C257.884375 512.65087891 256.95625 512.66699219 256 512.68359375 C255.113125 512.68423828 254.22625 512.68488281 253.3125 512.68554688 C252.09046875 512.69001831 252.09046875 512.69001831 250.84375 512.69458008 C250.1734375 512.57171631 249.503125 512.44885254 248.8125 512.32226562 C244.69263802 506.14247266 247.91243409 497.57921266 249.26538086 490.65136719 C250.09663662 486.53803269 250.95770969 482.43077391 251.8125 478.32226562 C244.5525 478.32226562 237.2925 478.32226562 229.8125 478.32226562 C230.18503906 480.45308594 230.55757812 482.58390625 230.94140625 484.77929688 C231.29725295 486.84418554 231.65057838 488.90949083 232.00366211 490.97485352 C232.25037562 492.40987941 232.49970732 493.84445775 232.75170898 495.27856445 C233.11350973 497.34018645 233.46585977 499.40323537 233.81640625 501.46679688 C234.03111572 502.70792236 234.2458252 503.94904785 234.46704102 505.2277832 C234.8125 508.32226562 234.8125 508.32226562 233.8125 511.32226562 C230.2764604 513.09028543 226.20678745 512.50691476 222.3125 512.50976562 C221.43207031 512.52201172 220.55164063 512.53425781 219.64453125 512.546875 C218.80277344 512.54880859 217.96101562 512.55074219 217.09375 512.55273438 C216.32095703 512.55684326 215.54816406 512.56095215 214.75195312 512.56518555 C212.8125 512.32226562 212.8125 512.32226562 210.8125 510.32226562 C210.34561207 503.09279778 211.48805059 496.35183428 212.8125 489.25976562 C213.00328125 488.20337891 213.1940625 487.14699219 213.390625 486.05859375 C213.85760226 483.47854441 214.33407334 480.90021642 214.8125 478.32226562 C207.5525 478.32226562 200.2925 478.32226562 192.8125 478.32226562 C193.1734375 480.05734375 193.534375 481.79242188 193.90625 483.58007812 C194.37530729 485.86907768 194.84404031 488.15814369 195.3125 490.44726562 C195.55097656 491.589375 195.78945313 492.73148437 196.03515625 493.90820312 C196.37353516 495.57109375 196.37353516 495.57109375 196.71875 497.26757812 C197.03295898 498.7914917 197.03295898 498.7914917 197.35351562 500.34619141 C198.563999 508.19501712 198.563999 508.19501712 195.8125 512.32226562 C193.78125 512.69458008 193.78125 512.69458008 191.3125 512.68554688 C190.425625 512.68490234 189.53875 512.68425781 188.625 512.68359375 C187.2328125 512.65942383 187.2328125 512.65942383 185.8125 512.63476562 C184.884375 512.63798828 183.95625 512.64121094 183 512.64453125 C176.07944139 512.58920702 176.07944139 512.58920702 173.8125 510.32226562 C173.50393565 501.13880275 174.6097194 486.72782682 178.8125 478.32226562 C171.5525 478.32226562 164.2925 478.32226562 156.8125 478.32226562 C157.245625 480.65611328 157.245625 480.65611328 157.6875 483.03710938 C158.06291076 485.11125382 158.43788774 487.18547681 158.8125 489.25976562 C159.00328125 490.28134766 159.1940625 491.30292969 159.390625 492.35546875 C160.47884687 498.43785168 161.21168782 504.14109173 160.8125 510.32226562 C157.92924777 513.20551785 155.56800535 512.61301013 151.625 512.64453125 C150.696875 512.64130859 149.76875 512.63808594 148.8125 512.63476562 C147.884375 512.65087891 146.95625 512.66699219 146 512.68359375 C145.113125 512.68423828 144.22625 512.68488281 143.3125 512.68554688 C142.4978125 512.68852783 141.683125 512.69150879 140.84375 512.69458008 C139.83828125 512.51028442 139.83828125 512.51028442 138.8125 512.32226562 C136.31467135 508.57552265 136.87589396 506.29174336 137.5 502.07226562 C137.59522949 501.37294922 137.69045898 500.67363281 137.78857422 499.953125 C138.82125213 492.67706893 140.29192772 485.51042551 141.8125 478.32226562 C134.5525 478.32226562 127.2925 478.32226562 119.8125 478.32226562 C120.18503906 480.20171875 120.55757812 482.08117187 120.94140625 484.01757812 C121.41981288 486.49403597 121.8976476 488.97060435 122.375 491.44726562 C122.7452832 493.30351563 122.7452832 493.30351563 123.12304688 495.19726562 C123.35185547 496.39609375 123.58066406 497.59492188 123.81640625 498.83007812 C124.03111572 499.92980957 124.2458252 501.02954102 124.46704102 502.16259766 C124.82943075 505.4771192 124.57352886 508.08603425 123.8125 511.32226562 C121.51240227 513.62236335 115.96459334 512.50763927 112.875 512.50976562 C111.94236328 512.52201172 111.00972656 512.53425781 110.04882812 512.546875 C109.15744141 512.54880859 108.26605469 512.55074219 107.34765625 512.55273438 C106.526604 512.55684326 105.70555176 512.56095215 104.85961914 512.56518555 C102.8125 512.32226562 102.8125 512.32226562 100.8125 510.32226562 C100.34561207 503.09279778 101.48805059 496.35183428 102.8125 489.25976562 C103.09867188 487.67518555 103.09867188 487.67518555 103.390625 486.05859375 C103.85760226 483.47854441 104.33407334 480.90021642 104.8125 478.32226562 C97.5525 478.32226562 90.2925 478.32226562 82.8125 478.32226562 C83.26625 480.21976562 83.72 482.11726563 84.1875 484.07226562 C88.47358536 502.71978394 88.47358536 502.71978394 87.8125 510.32226562 C84.92924777 513.20551785 82.56800535 512.61301013 78.625 512.64453125 C77.696875 512.64130859 76.76875 512.63808594 75.8125 512.63476562 C74.884375 512.65087891 73.95625 512.66699219 73 512.68359375 C72.113125 512.68423828 71.22625 512.68488281 70.3125 512.68554688 C69.09046875 512.69001831 69.09046875 512.69001831 67.84375 512.69458008 C67.1734375 512.57171631 66.503125 512.44885254 65.8125 512.32226562 C61.69263802 506.14247266 64.91243409 497.57921266 66.26538086 490.65136719 C67.09663662 486.53803269 67.95770969 482.43077391 68.8125 478.32226562 C61.5525 478.32226562 54.2925 478.32226562 46.8125 478.32226562 C47.10125 479.87816406 47.39 481.4340625 47.6875 483.03710938 C48.06291076 485.11125382 48.43788774 487.18547681 48.8125 489.25976562 C49.00328125 490.28134766 49.1940625 491.30292969 49.390625 492.35546875 C50.47884687 498.43785168 51.21168782 504.14109173 50.8125 510.32226562 C48.8125 512.32226562 48.8125 512.32226562 46.87304688 512.56518555 C46.10025391 512.56107666 45.32746094 512.55696777 44.53125 512.55273438 C43.26861328 512.54983398 43.26861328 512.54983398 41.98046875 512.546875 C41.10003906 512.53462891 40.21960938 512.52238281 39.3125 512.50976562 C38.43207031 512.50912109 37.55164063 512.50847656 36.64453125 512.5078125 C30.09330115 512.4626662 30.09330115 512.4626662 27.8125 511.32226562 C26.49881326 507.2141362 27.02491759 503.89496189 27.80859375 499.70898438 C28.03740234 498.46181641 28.26621094 497.21464844 28.50195312 495.9296875 C28.74880859 494.63611328 28.99566406 493.34253906 29.25 492.00976562 C29.49628996 490.68375084 29.74174154 489.35758004 29.98632812 488.03125 C30.58680553 484.79338165 31.19857051 481.5576103 31.8125 478.32226562 C24.5525 478.32226562 17.2925 478.32226562 9.8125 478.32226562 C10.451875 481.39539063 11.09125 484.46851563 11.75 487.63476562 C15.10971193 504.25975583 15.10971193 504.25975583 14.8125 509.32226562 C14.1525 510.31226563 13.4925 511.30226563 12.8125 512.32226562 C10.78125 512.69458008 10.78125 512.69458008 8.3125 512.68554688 C7.425625 512.68490234 6.53875 512.68425781 5.625 512.68359375 C4.2328125 512.65942383 4.2328125 512.65942383 2.8125 512.63476562 C1.884375 512.63798828 0.95625 512.64121094 0 512.64453125 C-6.92055861 512.58920702 -6.92055861 512.58920702 -9.1875 510.32226562 C-9.69367079 503.48895992 -8.42920587 497.02579936 -7.1875 490.32226562 C-6.99671875 489.26136719 -6.8059375 488.20046875 -6.609375 487.10742188 C-6.14158449 484.51118456 -5.66749288 481.91626968 -5.1875 479.32226562 C-5.73019531 479.103125 -6.27289063 478.88398438 -6.83203125 478.65820312 C-7.54746094 478.34109375 -8.26289062 478.02398437 -9 477.69726562 C-10.06154297 477.24480469 -10.06154297 477.24480469 -11.14453125 476.78320312 C-14.03719048 474.71464757 -14.83097077 472.59680415 -16.1875 469.32226562 C-16.56354749 465.85245419 -16.56354749 465.85245419 -16.56502342 461.94773865 C-16.56938374 461.22336597 -16.57374407 460.49899329 -16.57823652 459.75266993 C-16.58918836 457.32442443 -16.57877134 454.89674726 -16.56845093 452.46850586 C-16.57190752 450.71043577 -16.5766721 448.95236785 -16.58263266 447.19430447 C-16.59517207 442.36231491 -16.58895889 437.5305028 -16.57967401 432.69851255 C-16.57289591 427.48780831 -16.58335859 422.27713492 -16.59161377 417.06643677 C-16.60496653 406.8583036 -16.60206648 396.65023654 -16.59337585 386.44210076 C-16.58660578 378.14709444 -16.58567965 369.85210668 -16.5889473 361.55709839 C-16.589407 360.37733978 -16.58986669 359.19758117 -16.59034032 357.98207229 C-16.59129948 355.58555388 -16.59227212 353.18903547 -16.5932581 350.79251707 C-16.60181651 328.31060453 -16.59197077 305.82872867 -16.575857 283.34682214 C-16.56245342 264.0485792 -16.56478138 244.7503904 -16.57861328 225.45214844 C-16.59466111 203.05169438 -16.6009925 180.65127248 -16.59177649 158.25081348 C-16.59082082 155.86301995 -16.58987771 153.47522641 -16.5889473 151.08743286 C-16.58848447 149.91253609 -16.58802164 148.73763931 -16.58754479 147.5271396 C-16.58495251 139.24032441 -16.58933103 130.95352957 -16.59638596 122.66671753 C-16.6047923 112.57040689 -16.60253904 102.47416624 -16.58654372 92.37786365 C-16.57864936 87.22476139 -16.57558927 82.07177591 -16.58549118 76.91867447 C-16.59441442 72.20364043 -16.58954438 67.48883167 -16.57355852 62.77381814 C-16.57020066 61.06596351 -16.57192728 59.35808995 -16.57918589 57.65024745 C-16.58828423 55.33215705 -16.5789768 53.01484229 -16.56502342 50.6967926 C-16.56453637 49.40823647 -16.56404931 48.11968035 -16.56354749 46.79207706 C-16.15156978 42.99073542 -15.16938989 40.57218513 -13.1875 37.32226562 C-11.14453125 35.86132812 -11.14453125 35.86132812 -9 34.94726562 C-8.28457031 34.63015625 -7.56914063 34.31304687 -6.83203125 33.98632812 C-6.28933594 33.7671875 -5.74664062 33.54804687 -5.1875 33.32226562 C-5.30867188 32.66742188 -5.42984375 32.01257813 -5.5546875 31.33789062 C-6.10625485 28.33396999 -6.64694554 25.32818673 -7.1875 22.32226562 C-7.37828125 21.29230469 -7.5690625 20.26234375 -7.765625 19.20117188 C-8.78252303 13.49927936 -9.61666058 8.11593348 -9.1875 2.32226562 C-6.30424777 -0.5609866 -3.94300535 0.03152112 0 0 Z " fill="#13BC78" transform="translate(125.1875,-0.322265625)"/>
<path d="M0 0 C3.1268098 1.37066651 6.12302606 2.93878518 9.125 4.5625 C9.96812744 5.01359131 10.81125488 5.46468262 11.67993164 5.92944336 C18.41222118 9.58010099 24.78174268 13.51932664 31 18 C31.98097656 18.69609375 32.96195312 19.3921875 33.97265625 20.109375 C50.94551697 32.46123751 68.72992629 47.85634191 74 69 C74.40571732 72.05708661 74.47706001 75.04382208 74.4375 78.125 C74.43210205 78.94323242 74.4267041 79.76146484 74.42114258 80.60449219 C74.16308651 91.10217208 71.2338106 100.44056518 67 110 C67.556875 110.13535156 68.11375 110.27070313 68.6875 110.41015625 C75.9962028 112.4719018 81.57750984 116.02294509 85.58368015 122.59996223 C87.26197908 126.62891074 87.42110834 130.12497174 87.38768005 134.412323 C87.39575836 135.66111305 87.39575836 135.66111305 87.40399987 136.93513119 C87.41827601 139.7171596 87.41117657 142.49871196 87.40405273 145.28076172 C87.40975652 147.27849713 87.41672081 149.27622928 87.42485046 151.2739563 C87.44279703 156.69549983 87.44161052 162.11688163 87.43590808 167.53844595 C87.4328181 172.06627287 87.43890664 176.59406865 87.44494683 181.12189114 C87.45899566 191.80508267 87.45742804 202.48819425 87.44604492 213.17138672 C87.43456587 224.18795867 87.44863508 235.20428712 87.4754414 246.22082698 C87.4976034 255.68343249 87.50423456 265.14596159 87.49836498 274.6085912 C87.49499512 280.25831439 87.49741248 285.90788152 87.51461601 291.55758286 C87.5300907 296.8715149 87.52612355 302.18508653 87.50731087 307.49900436 C87.50362633 309.44684277 87.5067295 311.3947079 87.51719666 313.34252167 C87.5304177 316.00666497 87.51884944 318.66961706 87.50120544 321.33370972 C87.51561295 322.48324672 87.51561295 322.48324672 87.53031152 323.65600669 C87.44333959 330.06165311 85.52029892 335.45067653 80.96484375 340.05859375 C80.29582031 340.51363281 79.62679687 340.96867187 78.9375 341.4375 C78.26589844 341.91058594 77.59429687 342.38367188 76.90234375 342.87109375 C73.20180478 345.06710147 70.10309918 345.13464699 65.8913269 345.16062927 C64.61284378 345.1706749 63.33436066 345.18072052 62.01713562 345.19107056 C60.59719907 345.19710064 59.17726191 345.20298564 57.75732422 345.20874023 C56.26411215 345.21827964 54.77090229 345.22817084 53.2776947 345.23838806 C48.3700523 345.26976876 43.46239299 345.29004208 38.5546875 345.30859375 C37.71918192 345.31189107 36.88367635 345.31518839 36.02285242 345.31858563 C28.13983278 345.34937065 20.25680926 345.37607269 12.37374687 345.39300442 C2.29923197 345.41489823 -7.77474912 345.45684163 -17.84905064 345.52644199 C-24.93708818 345.57374315 -32.02498202 345.59794625 -39.11317241 345.6052013 C-43.34408928 345.61014912 -47.57440443 345.62514576 -51.80514908 345.6649456 C-55.78953029 345.70193328 -59.77296921 345.71018264 -63.75749016 345.69693947 C-65.21472769 345.69699322 -66.67200826 345.70720957 -68.12908745 345.7286911 C-76.06550238 345.83938023 -81.85789709 345.53554148 -88.3151226 340.65420628 C-90.98908665 338.02891845 -92.4311313 335.39921551 -94 332 C-94.33 331.34 -94.66 330.68 -95 330 C-95.10657305 327.34785987 -95.15221262 324.72147127 -95.15390015 322.06869507 C-95.1582824 321.23958606 -95.16266465 320.41047706 -95.1671797 319.55624354 C-95.18059583 316.76194007 -95.18675291 313.96766816 -95.19287109 311.17333984 C-95.20076996 309.17619686 -95.20903877 307.17905531 -95.21765137 305.18191528 C-95.24390032 298.60826994 -95.25918363 292.03461815 -95.2734375 285.4609375 C-95.27879633 283.19949972 -95.28417384 280.93806199 -95.28956985 278.6766243 C-95.31120436 269.26953623 -95.32994092 259.86244991 -95.34119225 250.45534325 C-95.35742913 236.96761901 -95.3905943 223.48018299 -95.44759309 209.99256742 C-95.48628886 200.51307493 -95.50582463 191.03365954 -95.51111281 181.55409014 C-95.51476724 175.89082195 -95.52679834 170.22786096 -95.55921555 164.56467819 C-95.58928882 159.23436637 -95.59561044 153.90454772 -95.58383179 148.57416916 C-95.58361098 146.61986452 -95.59192186 144.66553706 -95.60948563 142.71131134 C-95.63220008 140.03801831 -95.62387215 137.36651009 -95.60800171 134.69320679 C-95.62882484 133.53957707 -95.62882484 133.53957707 -95.65006864 132.36264169 C-95.54364766 125.06143256 -92.25642621 120.30770862 -87.25 115.1875 C-83.33772041 112.55423489 -79.51964471 111.23536956 -75 110 C-75.50660156 108.76636719 -75.50660156 108.76636719 -76.0234375 107.5078125 C-81.77286711 93.11762163 -85.37515467 77.11453355 -79.9375 62 C-67.6200939 34.50147714 -39.61805735 17.01759652 -14.16650391 3.18310547 C-12.34580184 2.18883882 -10.55040527 1.14842867 -8.76171875 0.09765625 C-5.19719691 -1.31907733 -3.67169689 -1.11766812 0 0 Z " fill="#13BD78" transform="translate(260,84)"/>
<path d="M0 0 C1.37085005 -0.00679667 1.37085005 -0.00679667 2.76939404 -0.01373065 C5.83859282 -0.02641361 8.90761504 -0.02475176 11.97683716 -0.02310181 C14.17456288 -0.0290846 16.37228649 -0.03588957 18.57000732 -0.04345703 C24.54520058 -0.06114909 30.52033658 -0.06581375 36.49555349 -0.0670886 C41.48076329 -0.06898607 46.46595971 -0.07634182 51.45116436 -0.08343279 C62.53905974 -0.09879535 73.62693251 -0.10476962 84.71483718 -0.10342209 C85.38008623 -0.10334218 86.04533529 -0.10326227 86.73074341 -0.10317993 C87.39680525 -0.10309817 88.06286709 -0.10301641 88.74911262 -0.10293217 C99.54396407 -0.10211924 110.338676 -0.12125873 121.13348709 -0.14945666 C132.21907039 -0.17818553 143.30459612 -0.19163069 154.39021885 -0.19026911 C160.61335754 -0.1897587 166.83633835 -0.19548589 173.05944443 -0.21662521 C178.91174728 -0.23596172 184.7637409 -0.23616334 190.61605453 -0.22159195 C192.76469371 -0.21949709 194.91335201 -0.22424485 197.06195831 -0.23631287 C199.99398227 -0.25171521 202.92493327 -0.24249007 205.85693359 -0.22705078 C207.13398393 -0.24248147 207.13398393 -0.24248147 208.43683326 -0.25822389 C213.75419877 -0.19629755 216.89466307 0.64670092 221.05545044 4.26742554 C223.28594031 7.67106443 223.30684175 10.55321192 223.30992603 14.56813622 C223.31575823 15.87170677 223.32159042 17.17527732 223.32759935 18.51835001 C223.323966 19.96843091 223.32014161 21.41851135 223.31614685 22.86859131 C223.31916631 24.4063198 223.32305476 25.94404679 223.32773942 27.48177111 C223.33805476 31.71396282 223.33582863 35.94607016 223.33155882 40.17826891 C223.32909799 44.74005589 223.33809777 49.30182221 223.34559631 53.86360168 C223.35836343 62.8033158 223.36013449 71.74299991 223.35779605 80.6827216 C223.35601491 87.94754845 223.35775813 95.21236617 223.36202049 102.47719193 C223.36261568 103.51012737 223.36321087 104.54306282 223.3638241 105.60729934 C223.36503582 107.70553981 223.36624995 109.80378029 223.36746647 111.90202077 C223.37834984 131.59170708 223.3761758 151.28137628 223.37008163 170.97106357 C223.3649122 188.99221995 223.37616717 207.01332229 223.39517985 225.03446798 C223.41454209 243.52841166 223.42281705 262.02232975 223.41905659 280.51628363 C223.41714204 290.90328285 223.41965679 301.29023606 223.43377113 311.67722702 C223.44566539 320.52010985 223.44711187 329.36291837 223.43498097 338.20580219 C223.4290784 342.71891547 223.42803074 347.23189268 223.43998337 351.74499702 C223.45079539 355.87538277 223.44779491 360.00551807 223.43372168 364.13589187 C223.43106178 365.63115839 223.43348165 367.12644425 223.44145755 368.62169187 C223.45154083 370.65278389 223.44136428 372.68394632 223.43018055 374.71503258 C223.43023557 375.84367143 223.43029058 376.97231028 223.43034726 378.13515031 C222.8852388 382.68954938 221.40769455 386.08743868 217.93450069 389.11819553 C213.9018428 390.7279109 210.2962373 390.68544482 205.99064636 390.65510559 C205.0758919 390.66049113 204.16113745 390.66587667 203.21866316 390.6714254 C200.15248483 390.68573658 197.0867363 390.67859339 194.02053833 390.67147827 C191.8226639 390.67718017 189.62479244 390.68414373 187.42692566 390.692276 C181.45589234 390.71024221 175.4850057 390.7090325 169.51395345 390.70333362 C164.53117417 390.70024682 159.54842327 390.70632853 154.56564802 390.71237236 C142.13976334 390.72723115 129.71394397 390.72359449 117.28806245 390.71150906 C106.49973507 390.70157668 95.7115792 390.71451731 84.92327828 390.73844325 C73.84217564 390.76283315 62.76114212 390.77204263 51.68001169 390.76579052 C45.46025103 390.76241633 39.24063208 390.76486684 33.02089119 390.78204155 C27.17266476 390.7974851 21.32476631 390.79358366 15.47655296 390.7747364 C13.32953073 390.7710434 11.18248433 390.77417961 9.03548431 390.78462219 C6.10568871 390.79778478 3.17698645 390.78632621 0.24723816 390.76863098 C-0.60344661 390.77823599 -1.45413138 390.78784099 -2.33059448 390.79773706 C-7.62966709 390.73183442 -10.8406003 389.93799066 -14.94454956 386.26742554 C-16.92276885 382.38982839 -17.19642239 379.16380372 -17.20181847 374.84366703 C-17.20826736 373.53810543 -17.21471625 372.23254383 -17.22136056 370.88741976 C-17.21841835 369.4402812 -17.21528292 367.99314302 -17.2119751 366.54600525 C-17.21571146 365.00741332 -17.22031292 363.46882329 -17.22570574 361.93023628 C-17.23795267 357.70030793 -17.23767329 353.47045858 -17.23531699 349.24051654 C-17.23490926 344.67942576 -17.24594371 340.11836045 -17.25543213 335.55728149 C-17.27205173 326.62105 -17.27754208 317.68484489 -17.27865689 308.74859924 C-17.27960678 301.4866563 -17.28371415 294.22472208 -17.29005814 286.96278191 C-17.30767216 266.38181411 -17.3168966 245.80086718 -17.31539719 225.21989179 C-17.31531728 224.1101458 -17.31523736 223.00039981 -17.31515503 221.85702515 C-17.31507327 220.74592721 -17.31499151 219.63482927 -17.31490727 218.49006169 C-17.31409403 200.47542108 -17.33324072 182.46086402 -17.36143176 164.44624759 C-17.39013804 145.95679145 -17.40397334 127.4673761 -17.40224421 108.97789711 C-17.40157959 98.59424845 -17.40710352 88.21068741 -17.42860031 77.82705879 C-17.44678231 68.9878455 -17.45118393 60.14875955 -17.43758146 51.30953569 C-17.43103708 46.79839988 -17.43098751 42.28750857 -17.44828796 37.7763958 C-17.46395874 33.6478376 -17.4612169 29.51971901 -17.4437197 25.39117192 C-17.44063655 23.89660617 -17.44433149 22.40200808 -17.45543985 20.90748043 C-17.46953126 18.87737288 -17.45660095 16.84713146 -17.4423275 14.81702518 C-17.44276224 13.6889284 -17.44319697 12.56083162 -17.44364488 11.39855009 C-16.81807339 7.4739646 -15.44622993 5.32917794 -12.94454956 2.26742554 C-8.95640846 -0.44013482 -4.66117573 -0.01686858 0 0 Z M97.14138794 24.03305054 C96.3891394 24.42250854 95.63689087 24.81196655 94.86184692 25.21322632 C94.05948608 25.64361206 93.25712524 26.0739978 92.43045044 26.51742554 C91.59521851 26.96199097 90.75998657 27.4065564 89.89944458 27.86459351 C77.20194697 34.75925953 65.003977 42.81975148 54.05545044 52.26742554 C53.22916138 52.97254272 52.40287231 53.67765991 51.55154419 54.40414429 C41.82769297 62.91065841 33.92232012 71.67678055 28.05545044 83.26742554 C27.69322388 83.9699646 27.33099731 84.67250366 26.95779419 85.39633179 C20.56269033 100.59585771 26.47784735 118.88457087 32.05545044 133.26742554 C31.49857544 133.4027771 30.94170044 133.53812866 30.36795044 133.67758179 C23.05924764 135.73932734 17.4779406 139.29037063 13.47177029 145.86738777 C11.79347136 149.89633628 11.6343421 153.39239728 11.66777039 157.67974854 C11.66238485 158.51227524 11.65699931 159.34480194 11.65145057 160.20255673 C11.63717443 162.98458514 11.64427387 165.7661375 11.65139771 168.54818726 C11.64569392 170.54592267 11.63872963 172.54365482 11.63059998 174.54138184 C11.61265341 179.96292536 11.61383992 185.38430717 11.61954236 190.80587149 C11.62263234 195.33369841 11.6165438 199.86149419 11.61050361 204.38931668 C11.59645478 215.07250821 11.5980224 225.75561979 11.60940552 236.43881226 C11.62088457 247.45538421 11.60681536 258.47171266 11.58000904 269.48825252 C11.55784704 278.95085802 11.55121588 288.41338712 11.55708545 297.87601674 C11.56045532 303.52573992 11.55803795 309.17530706 11.54083443 314.82500839 C11.52535974 320.13894044 11.52932689 325.45251206 11.54813957 330.7664299 C11.55182411 332.7142683 11.54872094 334.66213344 11.53825378 336.6099472 C11.52503274 339.27409051 11.536601 341.9370426 11.554245 344.60113525 C11.54463999 345.36749326 11.53503498 346.13385126 11.52513891 346.92343223 C11.61216128 353.3327925 13.52410162 358.75040511 18.12576294 363.32601929 C18.80380981 363.78105835 19.48185669 364.23609741 20.18045044 364.70492554 C21.20525513 365.41455444 21.20525513 365.41455444 22.25076294 366.13851929 C25.73134011 368.31576345 27.93011392 368.39881862 32.05059814 368.41459656 C33.32915176 368.42175186 34.60770538 368.42890717 35.92500305 368.4362793 C37.35015845 368.43911974 38.77531411 368.44183145 40.20046997 368.44442749 C41.69515644 368.45069121 43.18984135 368.45733793 44.68452454 368.46434021 C48.7529899 368.48176231 52.82144349 368.49230601 56.88993692 368.50054574 C59.43247462 368.50569506 61.97500867 368.51177093 64.51754379 368.51805687 C72.47426432 368.53711534 80.43097554 368.5513431 88.38771451 368.55966884 C97.56858568 368.56943408 106.74921529 368.59573208 115.93000138 368.63616973 C123.02734998 368.66635596 130.12462947 368.68114022 137.22204101 368.68444985 C141.46005771 368.68679817 145.69781655 368.69572939 149.93576431 368.72091103 C153.92655322 368.74423974 157.9169154 368.7484059 161.9077549 368.73814964 C163.36861276 368.73765528 164.82949196 368.74394648 166.29028511 368.75770569 C178.40765696 368.90416 178.40765696 368.90416 188.56308174 362.855443 C193.55266311 357.28877066 194.35186175 352.21613262 194.32287598 344.96862793 C194.32740709 344.13625008 194.3319382 343.30387224 194.33660662 342.44627082 C194.34926041 339.65889737 194.34762962 336.87171906 194.34597778 334.08432007 C194.35196239 332.08511097 194.35876778 330.08590418 194.36633301 328.08670044 C194.38400636 322.65693526 194.38868893 317.22723312 194.38996458 311.79744196 C194.39186375 307.26460538 194.39922143 302.73178348 194.40630877 298.19895256 C194.42259515 287.50480968 194.42747747 276.81070048 194.42605591 266.11654663 C194.42485416 255.08464883 194.44596208 244.05294657 194.47754323 233.02109826 C194.50369251 223.54919486 194.51442378 214.07735539 194.51314509 204.60541618 C194.51263509 198.9484335 194.51833935 193.29162461 194.53950119 187.63467789 C194.55886093 182.31421154 194.55902341 176.99408519 194.54446793 171.67360687 C194.54237598 169.72211842 194.54710365 167.7706088 194.55918884 165.81915665 C194.57463265 163.15243499 194.56533916 160.48688694 194.54992676 157.82019043 C194.56021388 157.05023747 194.57050101 156.2802845 194.58109987 155.48699963 C194.50133499 149.23017765 192.54028337 145.19360349 188.44998169 140.37680054 C184.02050012 136.57072749 179.69364744 134.72491864 174.05545044 133.26742554 C174.562052 132.01639038 174.562052 132.01639038 175.07888794 130.74008179 C175.74791138 129.05205444 175.74791138 129.05205444 176.43045044 127.32992554 C176.87130981 126.2277771 177.31216919 125.12562866 177.76638794 123.99008179 C182.41597503 110.56263786 183.55033761 95.28989995 177.59841919 82.11898804 C163.49730831 56.05870718 132.78262775 32.65828094 105.05545044 22.26742554 C101.29001363 22.26742554 100.2698242 22.41044612 97.14138794 24.03305054 Z " fill="#FCCD29" transform="translate(152.94454956054688,60.732574462890625)"/>
<path d="M0 0 C2.03125 -0.37231445 2.03125 -0.37231445 4.5 -0.36328125 C5.386875 -0.36263672 6.27375 -0.36199219 7.1875 -0.36132812 C8.5796875 -0.3371582 8.5796875 -0.3371582 10 -0.3125 C10.928125 -0.31572266 11.85625 -0.31894531 12.8125 -0.32226562 C19.73305861 -0.26694139 19.73305861 -0.26694139 22 2 C22.50617079 8.83330571 21.24170587 15.29646627 20 22 C19.71382813 23.59134766 19.71382813 23.59134766 19.421875 25.21484375 C18.95408449 27.81108107 18.47999288 30.40599595 18 33 C18.81404297 33.32871094 18.81404297 33.32871094 19.64453125 33.6640625 C20.35996094 33.98117188 21.07539063 34.29828125 21.8125 34.625 C22.52019531 34.92664062 23.22789062 35.22828125 23.95703125 35.5390625 C26.84969048 37.60761805 27.64347077 39.72546147 29 43 C29.37604749 46.46981144 29.37604749 46.46981144 29.37752342 50.37452698 C29.38188374 51.09889965 29.38624407 51.82327233 29.39073652 52.56959569 C29.40168836 54.9978412 29.39127134 57.42551837 29.38095093 59.85375977 C29.38440752 61.61182985 29.3891721 63.36989778 29.39513266 65.12796116 C29.40767207 69.95995071 29.40145889 74.79176282 29.39217401 79.62375307 C29.38539591 84.83445732 29.39585859 90.04513071 29.40411377 95.25582886 C29.41746653 105.46396202 29.41456648 115.67202909 29.40587585 125.88016486 C29.39910578 134.17517118 29.39817965 142.47015895 29.4014473 150.76516724 C29.401907 151.94492585 29.40236669 153.12468446 29.40284032 154.34019333 C29.40379948 156.73671175 29.40477212 159.13323016 29.4057581 161.52974856 C29.41431651 184.0116611 29.40447077 206.49353696 29.388357 228.97544348 C29.37495342 248.27368642 29.37728138 267.57187523 29.39111328 286.87011719 C29.40716111 309.27057124 29.4134925 331.67099314 29.40427649 354.07145214 C29.40332082 356.45924568 29.40237771 358.84703922 29.4014473 361.23483276 C29.40098447 362.40972954 29.40052164 363.58462631 29.40004479 364.79512602 C29.39745251 373.08194122 29.40183103 381.36873605 29.40888596 389.6555481 C29.4172923 399.75185873 29.41503904 409.84809938 29.39904372 419.94440198 C29.39114936 425.09750423 29.38808927 430.25048972 29.39799118 435.40359116 C29.40691442 440.1186252 29.40204438 444.83343396 29.38605852 449.54844749 C29.38270066 451.25630211 29.38442728 452.96417567 29.39168589 454.67201817 C29.40078423 456.99010858 29.3914768 459.30742333 29.37752342 461.62547302 C29.37703637 462.91402915 29.37654931 464.20258528 29.37604749 465.53018856 C28.96406978 469.33153021 27.98188989 471.7500805 26 475 C23.95703125 476.4609375 23.95703125 476.4609375 21.8125 477.375 C21.09707031 477.69210937 20.38164062 478.00921875 19.64453125 478.3359375 C19.10183594 478.55507813 18.55914062 478.77421875 18 479 C18.12117188 479.65484375 18.24234375 480.3096875 18.3671875 480.984375 C18.91875485 483.98829564 19.45944554 486.9940789 20 490 C20.19078125 491.02996094 20.3815625 492.05992187 20.578125 493.12109375 C21.59502303 498.82298626 22.42916058 504.20633214 22 510 C19.11674777 512.88325223 16.75550535 512.29074451 12.8125 512.32226562 C11.884375 512.31904297 10.95625 512.31582031 10 512.3125 C9.071875 512.32861328 8.14375 512.34472656 7.1875 512.36132812 C6.300625 512.36197266 5.41375 512.36261719 4.5 512.36328125 C3.27796875 512.36775269 3.27796875 512.36775269 2.03125 512.37231445 C1.3609375 512.24945068 0.690625 512.12658691 0 512 C-4.15079082 505.77381377 -0.86647343 497.05492602 0.50537109 490.07983398 C1.31689744 486.04887379 2.15271905 482.02359931 3 478 C-0.63 478 -4.26 478 -8 478 C-7.01 477.34 -6.02 476.68 -5 476 C-1.0615125 473.21445047 -1.0615125 473.21445047 1 469 C1.09706118 466.66032025 1.13098257 464.31789575 1.13422108 461.97620583 C1.13657331 461.25330671 1.13892554 460.5304076 1.14134905 459.78560245 C1.14804704 457.34449033 1.14758059 454.90343134 1.14717102 452.46231079 C1.15046913 450.70199451 1.15419459 448.94167898 1.1583125 447.18136442 C1.16834631 442.32932238 1.1720515 437.47729271 1.17470181 432.62524176 C1.17860067 427.3981508 1.18817916 422.17106968 1.19691467 416.94398499 C1.21668899 404.31477502 1.22674567 391.68556424 1.23564246 379.05634266 C1.24002302 373.11367589 1.24539036 367.17101002 1.25063133 361.22834396 C1.26764315 341.48256681 1.28213898 321.73679021 1.28938007 301.99100685 C1.29129006 296.86542383 1.29321038 291.73984082 1.29516602 286.61425781 C1.29564976 285.34027336 1.2961335 284.06628891 1.2966319 282.75369887 C1.3049384 262.09992097 1.33028599 241.44620088 1.36274669 220.79244824 C1.39577808 199.60346542 1.41382521 178.41451203 1.41702431 157.22550333 C1.41919285 145.32217028 1.42799177 133.41892157 1.45348549 121.51561356 C1.47513883 111.38186975 1.48326937 101.24823076 1.47351871 91.11446644 C1.46895865 85.94121351 1.47095895 80.76817709 1.49028015 75.59495354 C1.50780295 70.86253917 1.5070033 66.13050101 1.49138286 61.39808325 C1.48899016 59.68274758 1.4934156 57.96738659 1.50521151 56.25208981 C1.52022105 53.92608978 1.51073547 51.60144174 1.49498463 49.27547646 C1.49596144 47.98187663 1.49693824 46.6882768 1.49794465 45.35547698 C0.91298967 41.41366743 -0.19902644 39.78314874 -3 37 C-5.61818456 35.66701026 -5.61818456 35.66701026 -8 35 C-8 34.67 -8 34.34 -8 34 C-4.37 34 -0.74 34 3 34 C2.72285156 32.68386719 2.44570313 31.36773438 2.16015625 30.01171875 C-2.31887443 8.43149441 -2.31887443 8.43149441 -2 3 C-1.34 2.01 -0.68 1.02 0 0 Z " fill="#12AE6F" transform="translate(374,0)"/>
<path d="M0 0 C3.13310273 1.35563393 6.12348355 2.93903263 9.125 4.5625 C9.96812744 5.01359131 10.81125488 5.46468262 11.67993164 5.92944336 C18.41222118 9.58010099 24.78174268 13.51932664 31 18 C31.98097656 18.69609375 32.96195312 19.3921875 33.97265625 20.109375 C50.94551697 32.46123751 68.72992629 47.85634191 74 69 C74.40571732 72.05708661 74.47706001 75.04382208 74.4375 78.125 C74.43210205 78.94323242 74.4267041 79.76146484 74.42114258 80.60449219 C74.16308651 91.10217208 71.2338106 100.44056518 67 110 C67.556875 110.13535156 68.11375 110.27070313 68.6875 110.41015625 C75.9962028 112.4719018 81.57750984 116.02294509 85.58368015 122.59996223 C87.26197908 126.62891074 87.42110834 130.12497174 87.38768005 134.412323 C87.39306559 135.2448497 87.39845113 136.07737641 87.40399987 136.93513119 C87.41827601 139.7171596 87.41117657 142.49871196 87.40405273 145.28076172 C87.40975652 147.27849713 87.41672081 149.27622928 87.42485046 151.2739563 C87.44279703 156.69549983 87.44161052 162.11688163 87.43590808 167.53844595 C87.4328181 172.06627287 87.43890664 176.59406865 87.44494683 181.12189114 C87.45899566 191.80508267 87.45742804 202.48819425 87.44604492 213.17138672 C87.43456587 224.18795867 87.44863508 235.20428712 87.4754414 246.22082698 C87.4976034 255.68343249 87.50423456 265.14596159 87.49836498 274.6085912 C87.49499512 280.25831439 87.49741248 285.90788152 87.51461601 291.55758286 C87.5300907 296.8715149 87.52612355 302.18508653 87.50731087 307.49900436 C87.50362633 309.44684277 87.5067295 311.3947079 87.51719666 313.34252167 C87.5304177 316.00666497 87.51884944 318.66961706 87.50120544 321.33370972 C87.51561295 322.48324672 87.51561295 322.48324672 87.53031152 323.65600669 C87.44333959 330.06165311 85.52029892 335.45067653 80.96484375 340.05859375 C80.29582031 340.51363281 79.62679687 340.96867187 78.9375 341.4375 C78.26589844 341.91058594 77.59429687 342.38367188 76.90234375 342.87109375 C73.29490895 345.01185074 70.33975358 345.11847591 66.23828125 345.09765625 C65.12001953 345.09443359 64.00175781 345.09121094 62.84960938 345.08789062 C61.09874023 345.07532227 61.09874023 345.07532227 59.3125 345.0625 C58.13365234 345.05798828 56.95480469 345.05347656 55.74023438 345.04882812 C52.82677211 345.03703273 49.91341137 345.0205727 47 345 C50 343 50 343 52.875 341.375 C57.11167412 338.15512767 60.28235813 334.2296161 61.46194589 328.92109692 C61.64261434 326.6926442 61.67196676 324.51350915 61.64164734 322.27796936 C61.65015286 321.43627227 61.65865838 320.59457518 61.66742164 319.72737211 C61.68958689 316.92596789 61.67628622 314.12590516 61.6628418 311.32446289 C61.67125995 309.30834507 61.68178727 307.29223512 61.69425964 305.27613831 C61.72128139 299.81323207 61.71661375 294.35078304 61.70455909 288.88783956 C61.69742057 284.32270822 61.70593199 279.75766105 61.71446449 275.19253629 C61.73440817 264.42100484 61.72885706 253.64969538 61.70678711 242.87817383 C61.68442406 231.77511812 61.70202351 220.67264386 61.73983639 209.56964308 C61.77109036 200.02712456 61.77898018 190.48478585 61.76788265 180.94222254 C61.76140152 175.24715973 61.76336978 169.55243238 61.78720665 163.85740852 C61.80848363 158.50142196 61.80044779 153.1462546 61.77011299 147.79031944 C61.76379427 145.82839148 61.76762536 143.86639969 61.78252411 141.90451813 C62.1872184 128.91004713 62.1872184 128.91004713 56.68249226 117.5166235 C52.32590014 113.58952669 47.68623166 112.02490137 42 111 C42.18175781 110.41734375 42.36351562 109.8346875 42.55078125 109.234375 C43.09057379 107.47382088 43.61654658 105.70900244 44.1328125 103.94140625 C44.67993415 102.08562875 45.25453842 100.2375313 45.8671875 98.40234375 C49.37995499 86.77675609 50.53167876 70.87394967 45.46875 59.5546875 C41.69435984 52.9896578 37.61413022 46.58846555 32.21484375 41.2421875 C30 39 30 39 30 37 C29.43152344 36.75765625 28.86304688 36.5153125 28.27734375 36.265625 C25.56802253 34.75993019 23.76505673 32.93447334 21.5625 30.75 C10.45573324 20.45154241 -3.00532898 12.67447112 -16 5 C-10.56178681 0.8454852 -6.92957749 -1.7724961 0 0 Z " fill="#12AE6F" transform="translate(260,84)"/>
<path d="M0 0 C4.62 0 9.24 0 14 0 C15.41785913 5.47416917 16.63140787 10.93385635 17.625 16.5 C17.7590625 17.20769531 17.893125 17.91539062 18.03125 18.64453125 C18.90113958 23.49993536 19.28964826 28.06525194 19 33 C16.11674777 35.88325223 13.75550535 35.29074451 9.8125 35.32226562 C8.884375 35.31904297 7.95625 35.31582031 7 35.3125 C6.071875 35.32861328 5.14375 35.34472656 4.1875 35.36132812 C3.300625 35.36197266 2.41375 35.36261719 1.5 35.36328125 C0.27796875 35.36775269 0.27796875 35.36775269 -0.96875 35.37231445 C-1.6390625 35.24945068 -2.309375 35.12658691 -3 35 C-8.58712593 26.6193111 -1.87667957 9.40085532 0 0 Z " fill="#6C6D6C" transform="translate(377,477)"/>
<path d="M0 0 C4.62 0 9.24 0 14 0 C14.86796225 4.35182455 15.71976914 8.70578264 16.5625 13.0625 C16.80935547 14.29162109 17.05621094 15.52074219 17.31054688 16.78710938 C17.65375977 18.58051758 17.65375977 18.58051758 18.00390625 20.41015625 C18.32597046 22.05189819 18.32597046 22.05189819 18.65454102 23.72680664 C19.03813316 27.36130832 18.70924401 30.42329269 18 34 C15.69990227 36.30009773 10.15209334 35.18537365 7.0625 35.1875 C6.12986328 35.19974609 5.19722656 35.21199219 4.23632812 35.22460938 C3.34494141 35.22654297 2.45355469 35.22847656 1.53515625 35.23046875 C0.714104 35.23457764 -0.10694824 35.23868652 -0.95288086 35.24291992 C-3 35 -3 35 -5 33 C-5.49365659 26.21418077 -4.27785744 19.78633628 -3.0625 13.125 C-2.88009766 12.08085937 -2.69769531 11.03671875 -2.50976562 9.9609375 C-1.14267637 2.28535274 -1.14267637 2.28535274 0 0 Z " fill="#6C6D6C" transform="translate(121,477)"/>
<path d="M0 0 C1.39895508 -0.01836914 1.39895508 -0.01836914 2.82617188 -0.03710938 C4.16325195 -0.04000977 4.16325195 -0.04000977 5.52734375 -0.04296875 C6.348396 -0.04707764 7.16944824 -0.05118652 8.01538086 -0.05541992 C10.0625 0.1875 10.0625 0.1875 12.0625 2.1875 C12.55615659 8.97331923 11.34035744 15.40116372 10.125 22.0625 C9.94259766 23.10664063 9.76019531 24.15078125 9.57226562 25.2265625 C8.20517637 32.90214726 8.20517637 32.90214726 7.0625 35.1875 C2.4425 35.1875 -2.1775 35.1875 -6.9375 35.1875 C-7.80546225 30.83567545 -8.65726914 26.48171736 -9.5 22.125 C-9.74685547 20.89587891 -9.99371094 19.66675781 -10.24804688 18.40039062 C-10.47685547 17.20478516 -10.70566406 16.00917969 -10.94140625 14.77734375 C-11.26347046 13.13560181 -11.26347046 13.13560181 -11.59204102 11.46069336 C-11.97563316 7.82619168 -11.64674401 4.76420731 -10.9375 1.1875 C-8.63740227 -1.11259773 -3.08959334 0.00212635 0 0 Z " fill="#6C6D6C" transform="translate(383.9375,-0.1875)"/>
<path d="M0 0 C1.39895508 -0.01836914 1.39895508 -0.01836914 2.82617188 -0.03710938 C4.16325195 -0.04000977 4.16325195 -0.04000977 5.52734375 -0.04296875 C6.348396 -0.04707764 7.16944824 -0.05118652 8.01538086 -0.05541992 C10.0625 0.1875 10.0625 0.1875 12.0625 2.1875 C12.51961468 9.38524224 11.41921448 16.12082023 10.125 23.1875 C9.94259766 24.23550781 9.76019531 25.28351562 9.57226562 26.36328125 C8.20172529 34.04827471 8.20172529 34.04827471 7.0625 35.1875 C4.70936445 35.26021741 2.35416332 35.27120868 0 35.25 C-1.29035156 35.24097656 -2.58070313 35.23195312 -3.91015625 35.22265625 C-4.90917969 35.21105469 -5.90820312 35.19945312 -6.9375 35.1875 C-7.6810017 31.31211684 -8.41090022 27.43443441 -9.12866211 23.55419922 C-9.49472517 21.59079198 -9.871311 19.62935607 -10.24804688 17.66796875 C-10.47685547 16.42402344 -10.70566406 15.18007812 -10.94140625 13.8984375 C-11.15611572 12.75681152 -11.3708252 11.61518555 -11.59204102 10.43896484 C-11.94813051 7.08744552 -11.71047339 4.45760939 -10.9375 1.1875 C-8.63740227 -1.11259773 -3.08959334 0.00212635 0 0 Z " fill="#6C6C6C" transform="translate(273.9375,-0.1875)"/>
<path d="M0 0 C0.928125 0.00322266 1.85625 0.00644531 2.8125 0.00976562 C3.740625 -0.00634766 4.66875 -0.02246094 5.625 -0.0390625 C6.511875 -0.03970703 7.39875 -0.04035156 8.3125 -0.04101562 C9.1271875 -0.04399658 9.941875 -0.04697754 10.78125 -0.05004883 C11.4515625 0.07281494 12.121875 0.19567871 12.8125 0.32226562 C15.42768153 4.24503792 14.7677025 5.89233558 14.125 10.50976562 C13.98215576 11.55487305 13.98215576 11.55487305 13.83642578 12.62109375 C12.75779336 20.23456873 11.31633096 27.78305972 9.8125 35.32226562 C5.1925 35.32226562 0.5725 35.32226562 -4.1875 35.32226562 C-7.33910028 24.88087687 -10.14732935 13.26432026 -9.1875 2.32226562 C-6.30424777 -0.5609866 -3.94300535 0.03152112 0 0 Z " fill="#6C6C6C" transform="translate(235.1875,-0.322265625)"/>
<path d="M0 0 C0.928125 0.00322266 1.85625 0.00644531 2.8125 0.00976562 C3.740625 -0.00634766 4.66875 -0.02246094 5.625 -0.0390625 C6.511875 -0.03970703 7.39875 -0.04035156 8.3125 -0.04101562 C9.1271875 -0.04399658 9.941875 -0.04697754 10.78125 -0.05004883 C11.4515625 0.07281494 12.121875 0.19567871 12.8125 0.32226562 C18.39962593 8.70295452 11.68917957 25.92141031 9.8125 35.32226562 C5.1925 35.32226562 0.5725 35.32226562 -4.1875 35.32226562 C-5.60535913 29.84809645 -6.81890787 24.38840928 -7.8125 18.82226562 C-7.9465625 18.11457031 -8.080625 17.406875 -8.21875 16.67773438 C-9.08863958 11.82233026 -9.47714826 7.25701369 -9.1875 2.32226562 C-6.30424777 -0.5609866 -3.94300535 0.03152112 0 0 Z " fill="#6C6D6C" transform="translate(125.1875,-0.322265625)"/>
<path d="M0 0 C4.62 0 9.24 0 14 0 C14.84021282 4.20706563 15.67240527 8.41545058 16.5 12.625 C16.73847656 13.81480469 16.97695313 15.00460937 17.22265625 16.23046875 C17.44824219 17.38417969 17.67382812 18.53789062 17.90625 19.7265625 C18.11572266 20.78439941 18.32519531 21.84223633 18.54101562 22.93212891 C19.73313402 30.90029897 19.73313402 30.90029897 17 35 C14.96875 35.37231445 14.96875 35.37231445 12.5 35.36328125 C11.613125 35.36263672 10.72625 35.36199219 9.8125 35.36132812 C8.4203125 35.3371582 8.4203125 35.3371582 7 35.3125 C6.071875 35.31572266 5.14375 35.31894531 4.1875 35.32226562 C-2.73305861 35.26694139 -2.73305861 35.26694139 -5 33 C-5.55112825 22.01417692 -2.28466464 10.65822621 0 0 Z " fill="#6C6D6C" transform="translate(304,477)"/>
<path d="M0 0 C4.62 0 9.24 0 14 0 C19.59385666 23.64675768 19.59385666 23.64675768 19 33 C16.11674777 35.88325223 13.75550535 35.29074451 9.8125 35.32226562 C8.884375 35.31904297 7.95625 35.31582031 7 35.3125 C6.071875 35.32861328 5.14375 35.34472656 4.1875 35.36132812 C3.300625 35.36197266 2.41375 35.36261719 1.5 35.36328125 C0.27796875 35.36775269 0.27796875 35.36775269 -0.96875 35.37231445 C-1.6390625 35.24945068 -2.309375 35.12658691 -3 35 C-5.61518153 31.07722771 -4.9552025 29.42993005 -4.3125 24.8125 C-4.21727051 24.11576172 -4.12204102 23.41902344 -4.02392578 22.70117188 C-2.94529336 15.0876969 -1.50383096 7.5392059 0 0 Z " fill="#6C6D6C" transform="translate(267,477)"/>
<path d="M0 0 C4.62 0 9.24 0 14 0 C14.73992092 3.8762639 15.47337906 7.75295122 16.19116211 11.63330078 C16.55722517 13.59670802 16.933811 15.55814393 17.31054688 17.51953125 C17.65375977 19.38544922 17.65375977 19.38544922 18.00390625 21.2890625 C18.32597046 23.00150146 18.32597046 23.00150146 18.65454102 24.74853516 C19.01063051 28.10005448 18.77297339 30.72989061 18 34 C15.69990227 36.30009773 10.15209334 35.18537365 7.0625 35.1875 C6.12986328 35.19974609 5.19722656 35.21199219 4.23632812 35.22460938 C3.34494141 35.22654297 2.45355469 35.22847656 1.53515625 35.23046875 C0.714104 35.23457764 -0.10694824 35.23868652 -0.95288086 35.24291992 C-3 35 -3 35 -5 33 C-5.44278692 25.96460785 -4.3933814 19.45637353 -3.0625 12.5625 C-2.78889648 11.07459961 -2.78889648 11.07459961 -2.50976562 9.55664062 C-1.14912759 2.29825518 -1.14912759 2.29825518 0 0 Z " fill="#6C6D6C" transform="translate(231,477)"/>
<path d="M0 0 C4.62 0 9.24 0 14 0 C19.39329384 25.16034287 19.39329384 25.16034287 19 33 C16.11674777 35.88325223 13.75550535 35.29074451 9.8125 35.32226562 C8.884375 35.31904297 7.95625 35.31582031 7 35.3125 C6.071875 35.32861328 5.14375 35.34472656 4.1875 35.36132812 C3.300625 35.36197266 2.41375 35.36261719 1.5 35.36328125 C0.27796875 35.36775269 0.27796875 35.36775269 -0.96875 35.37231445 C-1.6390625 35.24945068 -2.309375 35.12658691 -3 35 C-8.58712593 26.6193111 -1.87667957 9.40085532 0 0 Z " fill="#6C6D6D" transform="translate(194,477)"/>
<path d="M0 0 C0.928125 0.00322266 1.85625 0.00644531 2.8125 0.00976562 C3.740625 -0.00634766 4.66875 -0.02246094 5.625 -0.0390625 C6.511875 -0.03970703 7.39875 -0.04035156 8.3125 -0.04101562 C9.1271875 -0.04399658 9.941875 -0.04697754 10.78125 -0.05004883 C11.4515625 0.07281494 12.121875 0.19567871 12.8125 0.32226562 C18.39962593 8.70295452 11.68917957 25.92141031 9.8125 35.32226562 C5.1925 35.32226562 0.5725 35.32226562 -4.1875 35.32226562 C-9.58079384 10.16192275 -9.58079384 10.16192275 -9.1875 2.32226562 C-6.30424777 -0.5609866 -3.94300535 0.03152112 0 0 Z " fill="#6C6D6D" transform="translate(308.1875,-0.322265625)"/>
<path d="M0 0 C1.39895508 -0.01836914 1.39895508 -0.01836914 2.82617188 -0.03710938 C4.16325195 -0.04000977 4.16325195 -0.04000977 5.52734375 -0.04296875 C6.348396 -0.04707764 7.16944824 -0.05118652 8.01538086 -0.05541992 C10.0625 0.1875 10.0625 0.1875 12.0625 2.1875 C12.61362825 13.17332308 9.34716464 24.52927379 7.0625 35.1875 C2.4425 35.1875 -2.1775 35.1875 -6.9375 35.1875 C-7.80546225 30.83567545 -8.65726914 26.48171736 -9.5 22.125 C-9.74685547 20.89587891 -9.99371094 19.66675781 -10.24804688 18.40039062 C-10.47685547 17.20478516 -10.70566406 16.00917969 -10.94140625 14.77734375 C-11.26347046 13.13560181 -11.26347046 13.13560181 -11.59204102 11.46069336 C-11.97563316 7.82619168 -11.64674401 4.76420731 -10.9375 1.1875 C-8.63740227 -1.11259773 -3.08959334 0.00212635 0 0 Z " fill="#6C6D6D" transform="translate(200.9375,-0.1875)"/>
<path d="M0 0 C0.82741699 0.01047363 1.65483398 0.02094727 2.50732422 0.03173828 C3.40322266 0.03818359 4.29912109 0.04462891 5.22216797 0.05126953 C6.62789063 0.07640625 6.62789063 0.07640625 8.06201172 0.10205078 C9.00689453 0.11107422 9.95177734 0.12009766 10.92529297 0.12939453 C13.26278464 0.15300556 15.59977295 0.18593562 17.93701172 0.22705078 C19.84900439 4.91247363 20.00527015 7.9513701 19.07373047 12.90283203 C18.84621094 14.14226563 18.61869141 15.38169922 18.38427734 16.65869141 C18.13355469 17.939375 17.88283203 19.22005859 17.62451172 20.53955078 C17.38169143 21.85246503 17.14014244 23.16561508 16.89990234 24.47900391 C15.101401 34.0626615 15.101401 34.0626615 13.93701172 35.22705078 C11.75061719 35.29964024 9.56200783 35.31078861 7.37451172 35.28955078 C5.57820313 35.27601562 5.57820313 35.27601562 3.74560547 35.26220703 C2.81876953 35.25060547 1.89193359 35.23900391 0.93701172 35.22705078 C-0.85644054 30.33794398 -1.84609707 25.53032851 -2.68798828 20.41455078 C-2.82205078 19.65851562 -2.95611328 18.90248047 -3.09423828 18.12353516 C-3.96415103 12.91737363 -4.76023245 7.49550598 -4.06298828 2.22705078 C-2.06298828 0.22705078 -2.06298828 0.22705078 0 0 Z " fill="#6C6C6C" transform="translate(340.06298828125,-0.22705078125)"/>
<path d="M0 0 C3.29159316 -0.05790353 6.58305603 -0.09356261 9.875 -0.125 C10.81214844 -0.14175781 11.74929687 -0.15851562 12.71484375 -0.17578125 C13.61074219 -0.18222656 14.50664062 -0.18867187 15.4296875 -0.1953125 C16.25710449 -0.20578613 17.08452148 -0.21625977 17.93701172 -0.22705078 C20 0 20 0 22 2 C22.45711468 9.19774224 21.35671448 15.93332023 20.0625 23 C19.88009766 24.04800781 19.69769531 25.09601562 19.50976562 26.17578125 C18.13922529 33.86077471 18.13922529 33.86077471 17 35 C14.81360547 35.07258946 12.62499611 35.08373783 10.4375 35.0625 C8.64119141 35.04896484 8.64119141 35.04896484 6.80859375 35.03515625 C5.88175781 35.02355469 4.95492187 35.01195312 4 35 C1.83664749 28.87277603 0.79163956 22.77154717 -0.25 16.375 C-0.44851562 15.24320313 -0.64703125 14.11140625 -0.8515625 12.9453125 C-1.02945313 11.85734375 -1.20734375 10.769375 -1.390625 9.6484375 C-1.55594727 8.66020996 -1.72126953 7.67198242 -1.89160156 6.65380859 C-2.00952437 3.76682457 -1.52185786 2.4144998 0 0 Z " fill="#6C6C6C" transform="translate(154,0)"/>
<path d="M0 0 C1.79244141 0.01740234 1.79244141 0.01740234 3.62109375 0.03515625 C5.41740234 0.04869141 5.41740234 0.04869141 7.25 0.0625 C8.17683594 0.07410156 9.10367187 0.08570313 10.05859375 0.09765625 C12.23583738 6.24452949 13.23010871 12.3628104 14.24609375 18.78515625 C14.43623047 19.92533203 14.62636719 21.06550781 14.82226562 22.24023438 C14.99693359 23.33142578 15.17160156 24.42261719 15.3515625 25.546875 C15.51164795 26.54033936 15.6717334 27.53380371 15.83666992 28.55737305 C16.05859375 31.09765625 16.05859375 31.09765625 15.05859375 34.09765625 C11.52255415 35.86567605 7.4528812 35.28230538 3.55859375 35.28515625 C2.67816406 35.29740234 1.79773438 35.30964844 0.890625 35.32226562 C0.04886719 35.32419922 -0.79289062 35.32613281 -1.66015625 35.328125 C-2.43294922 35.33223389 -3.20574219 35.33634277 -4.00195312 35.34057617 C-5.94140625 35.09765625 -5.94140625 35.09765625 -7.94140625 33.09765625 C-8.39852093 25.89991401 -7.29812073 19.16433602 -6.00390625 12.09765625 C-5.73030273 10.52564453 -5.73030273 10.52564453 -5.45117188 8.921875 C-3.88303768 0.12891891 -3.88303768 0.12891891 0 0 Z " fill="#6C6C6C" transform="translate(343.94140625,476.90234375)"/>
<path d="M0 0 C1.79244141 0.01740234 1.79244141 0.01740234 3.62109375 0.03515625 C5.41740234 0.04869141 5.41740234 0.04869141 7.25 0.0625 C8.17683594 0.07410156 9.10367188 0.08570313 10.05859375 0.09765625 C11.85204601 4.98676305 12.84170254 9.79437852 13.68359375 14.91015625 C13.81765625 15.66619141 13.95171875 16.42222656 14.08984375 17.20117188 C14.9597565 22.4073334 15.75583792 27.82920106 15.05859375 33.09765625 C13.05859375 35.09765625 13.05859375 35.09765625 11.11914062 35.34057617 C10.34634766 35.33646729 9.57355469 35.3323584 8.77734375 35.328125 C7.51470703 35.32522461 7.51470703 35.32522461 6.2265625 35.32226562 C4.90591797 35.30389648 4.90591797 35.30389648 3.55859375 35.28515625 C2.67816406 35.28451172 1.79773438 35.28386719 0.890625 35.28320312 C-5.6606051 35.23805682 -5.6606051 35.23805682 -7.94140625 34.09765625 C-9.24373888 30.00779341 -8.74236549 26.69022352 -7.98046875 22.51953125 C-7.75617188 21.276875 -7.531875 20.03421875 -7.30078125 18.75390625 C-7.0584375 17.46484375 -6.81609375 16.17578125 -6.56640625 14.84765625 C-6.32867315 13.53008373 -6.09168626 12.21237633 -5.85546875 10.89453125 C-3.88176541 0.12887667 -3.88176541 0.12887667 0 0 Z " fill="#6C6D6C" transform="translate(160.94140625,476.90234375)"/>
<path d="M0 0 C3.75200185 1.15970966 5.02195614 2.03649473 7.4375 5.0625 C7.93920898 7.64038086 7.93920898 7.64038086 7.93359375 10.52734375 C7.93423828 11.57470703 7.93488281 12.62207031 7.93554688 13.70117188 C7.91556641 14.78978516 7.89558594 15.87839844 7.875 17 C7.88208984 18.08474609 7.88917969 19.16949219 7.89648438 20.28710938 C7.85204702 25.84861513 7.78693243 29.42447003 4.4375 34.0625 C1.34576248 35.60836876 -1.15679552 35.35609521 -4.5625 35.0625 C-7.34927591 32.96318056 -8.42834488 31.75697534 -9.09594727 28.30102539 C-9.13155625 24.90762132 -9.15640478 21.51856348 -9.125 18.125 C-9.14884766 16.94486328 -9.17269531 15.76472656 -9.19726562 14.54882812 C-9.18089768 4.90810768 -9.18089768 4.90810768 -6.25 1.75 C-3.5625 0.0625 -3.5625 0.0625 0 0 Z " fill="#FFE17E" transform="translate(158.5625,82.9375)"/>
</svg>
